<svg width="73" height="73" viewBox="0 0 73 73" fill="none" xmlns="http://www.w3.org/2000/svg">
<path d="M36.125 72.25C56.0763 72.25 72.25 56.0763 72.25 36.125C72.25 16.1737 56.0763 0 36.125 0C16.1737 0 0 16.1737 0 36.125C0 56.0763 16.1737 72.25 36.125 72.25Z" fill="#5B68C0"/>
<path fill-rule="evenodd" clip-rule="evenodd" d="M23.9458 52.2685C31.4261 57.7032 43.952 55.6534 49.3868 48.1731C54.8215 40.6928 57.575 11.4358 57.575 11.4358C57.575 11.4358 29.2441 19.7366 22.522 27.1306C15.7999 34.5245 16.4654 46.8337 23.9458 52.2685Z" fill="#80D25B"/>
<path d="M50.4294 19.6887C50.4294 19.6887 32.8761 30.4627 26.4928 50.306C24.8504 55.4116 22.379 59.0544 19.614 61.6491" stroke="#22BA8E" stroke-width="2.8125" stroke-linecap="round"/>
<path d="M41.0184 44.7263L29.2851 44.2278L23.6062 34.2212" stroke="#22BA8E" stroke-width="1.875" stroke-linecap="round"/>
<path d="M44.6219 34.2573L36.6214 32.6196L34.0518 26.0955" stroke="#22BA8E" stroke-width="1.875" stroke-linecap="round"/>
</svg>
